<svg xmlns="http://www.w3.org/2000/svg" viewBox="0 0 397.7 311.7" width="20" height="16">
  <defs>
    <linearGradient id="sg1" x1="360.88" y1="351.46" x2="141.21" y2="-69.29" gradientTransform="matrix(1 0 0 -1 0 314)">
      <stop offset="0" stop-color="#00FFA3"/>
      <stop offset="1" stop-color="#DC1FFF"/>
    </linearGradient>
    <linearGradient id="sg2" x1="264.83" y1="401.6" x2="45.16" y2="-19.15" gradientTransform="matrix(1 0 0 -1 0 314)">
      <stop offset="0" stop-color="#00FFA3"/>
      <stop offset="1" stop-color="#DC1FFF"/>
    </linearGradient>
    <linearGradient id="sg3" x1="312.55" y1="376.69" x2="92.88" y2="-44.06" gradientTransform="matrix(1 0 0 -1 0 314)">
      <stop offset="0" stop-color="#00FFA3"/>
      <stop offset="1" stop-color="#DC1FFF"/>
    </linearGradient>
  </defs>
  <path fill="url(#sg1)" d="M64.6 237.9c2.4-2.4 5.7-3.8 9.2-3.8h317.4c5.8 0 8.7 7 4.6 11.1l-62.7 62.7c-2.4 2.4-5.7 3.8-9.2 3.8H6.5c-5.8 0-8.7-7-4.6-11.1l62.7-62.7z"/>
  <path fill="url(#sg2)" d="M64.6 3.8c2.5-2.4 5.8-3.8 9.2-3.8h317.4c5.8 0 8.7 7 4.6 11.1l-62.7 62.7c-2.4 2.4-5.7 3.8-9.2 3.8H6.5c-5.8 0-8.7-7-4.6-11.1L64.6 3.8z"/>
  <path fill="url(#sg3)" d="M333.1 120.1c-2.4-2.4-5.7-3.8-9.2-3.8H6.5c-5.8 0-8.7 7-4.6 11.1l62.7 62.7c2.4 2.4 5.7 3.8 9.2 3.8h317.4c5.8 0 8.7-7 4.6-11.1l-62.7-62.7z"/>
</svg>
